<mxfile host="app.diagrams.net" agent="Mozilla/5.0 (Windows NT 10.0; Win64; x64; rv:143.0) Gecko/20100101 Firefox/143.0" version="28.0.6">
  <diagram id="q6n7zkVG8RyomcyccOzr" name="Page-4">
    <mxGraphModel dx="1111" dy="1238" grid="1" gridSize="10" guides="1" tooltips="1" connect="1" arrows="1" fold="1" page="1" pageScale="1" pageWidth="850" pageHeight="1100" math="0" shadow="0">
      <root>
        <mxCell id="0" />
        <mxCell id="1" parent="0" />
        <mxCell id="_I0EDEAmdE2JyKph3qPA-5" style="edgeStyle=orthogonalEdgeStyle;rounded=0;orthogonalLoop=1;jettySize=auto;html=1;entryX=0;entryY=0.5;entryDx=0;entryDy=0;" parent="1" source="B2q7mUwTHAzQwutEBw8Z-1" target="_I0EDEAmdE2JyKph3qPA-6" edge="1">
          <mxGeometry relative="1" as="geometry">
            <mxPoint x="290" y="500" as="targetPoint" />
          </mxGeometry>
        </mxCell>
        <mxCell id="B2q7mUwTHAzQwutEBw8Z-1" value="User/SRE" style="shape=umlActor;verticalLabelPosition=bottom;verticalAlign=top;html=1;outlineConnect=0;" parent="1" vertex="1">
          <mxGeometry x="70" y="470" width="30" height="60" as="geometry" />
        </mxCell>
        <mxCell id="uTRSW4C0SdH06rjCTka4-3" value="Send incident context&lt;br&gt;Follow up questions&amp;nbsp;" style="text;html=1;align=center;verticalAlign=middle;resizable=0;points=[];autosize=1;strokeColor=none;fillColor=none;" parent="1" vertex="1">
          <mxGeometry x="130" y="505" width="140" height="40" as="geometry" />
        </mxCell>
        <mxCell id="_I0EDEAmdE2JyKph3qPA-12" style="edgeStyle=orthogonalEdgeStyle;rounded=0;orthogonalLoop=1;jettySize=auto;html=1;entryX=0;entryY=0.5;entryDx=0;entryDy=0;" parent="1" source="_I0EDEAmdE2JyKph3qPA-6" edge="1">
          <mxGeometry relative="1" as="geometry">
            <mxPoint x="610" y="500" as="targetPoint" />
          </mxGeometry>
        </mxCell>
        <mxCell id="_I0EDEAmdE2JyKph3qPA-6" value="Chatbot service" style="rounded=1;whiteSpace=wrap;html=1;" parent="1" vertex="1">
          <mxGeometry x="330" y="470" width="130" height="60" as="geometry" />
        </mxCell>
        <mxCell id="_I0EDEAmdE2JyKph3qPA-7" value="Show responses &amp;amp; RCA report" style="text;html=1;align=center;verticalAlign=middle;resizable=0;points=[];autosize=1;strokeColor=none;fillColor=none;" parent="1" vertex="1">
          <mxGeometry x="120" y="450" width="190" height="30" as="geometry" />
        </mxCell>
        <mxCell id="_I0EDEAmdE2JyKph3qPA-10" value="" style="endArrow=classic;html=1;rounded=0;" parent="1" edge="1">
          <mxGeometry width="50" height="50" relative="1" as="geometry">
            <mxPoint x="320" y="490" as="sourcePoint" />
            <mxPoint x="110" y="490" as="targetPoint" />
          </mxGeometry>
        </mxCell>
        <mxCell id="_I0EDEAmdE2JyKph3qPA-13" value="Forward context" style="text;html=1;align=center;verticalAlign=middle;resizable=0;points=[];autosize=1;strokeColor=none;fillColor=none;" parent="1" vertex="1">
          <mxGeometry x="480" y="500" width="110" height="30" as="geometry" />
        </mxCell>
        <mxCell id="f4k4mPXVEmRB13-rDJSD-7" style="edgeStyle=orthogonalEdgeStyle;rounded=0;orthogonalLoop=1;jettySize=auto;html=1;entryX=0;entryY=0.5;entryDx=0;entryDy=0;entryPerimeter=0;" parent="1" source="Fe8OBIoB_mkEUTJh_w8t-6" target="f4k4mPXVEmRB13-rDJSD-6" edge="1">
          <mxGeometry relative="1" as="geometry">
            <mxPoint x="910" y="700" as="targetPoint" />
            <Array as="points">
              <mxPoint x="1025" y="520" />
            </Array>
          </mxGeometry>
        </mxCell>
        <mxCell id="f4k4mPXVEmRB13-rDJSD-9" value="Retrieve architecture/runbook/past incident documents" style="edgeLabel;html=1;align=center;verticalAlign=middle;resizable=0;points=[];" parent="f4k4mPXVEmRB13-rDJSD-7" vertex="1" connectable="0">
          <mxGeometry x="0.1704" y="-2" relative="1" as="geometry">
            <mxPoint x="-26" y="8" as="offset" />
          </mxGeometry>
        </mxCell>
        <mxCell id="8Fh6wXzdwlMob8bPz3gx-2" value="" style="edgeStyle=orthogonalEdgeStyle;rounded=0;orthogonalLoop=1;jettySize=auto;html=1;" parent="1" source="Fe8OBIoB_mkEUTJh_w8t-6" target="8Fh6wXzdwlMob8bPz3gx-1" edge="1">
          <mxGeometry relative="1" as="geometry" />
        </mxCell>
        <mxCell id="8Fh6wXzdwlMob8bPz3gx-3" value="Session context" style="edgeLabel;html=1;align=center;verticalAlign=middle;resizable=0;points=[];" parent="8Fh6wXzdwlMob8bPz3gx-2" vertex="1" connectable="0">
          <mxGeometry x="-0.1583" y="1" relative="1" as="geometry">
            <mxPoint x="-1" y="13" as="offset" />
          </mxGeometry>
        </mxCell>
        <mxCell id="Fe8OBIoB_mkEUTJh_w8t-6" value="2.1 Analyze context" style="rounded=1;whiteSpace=wrap;html=1;" parent="1" vertex="1">
          <mxGeometry x="610" y="470" width="120" height="60" as="geometry" />
        </mxCell>
        <mxCell id="f4k4mPXVEmRB13-rDJSD-3" value="AWS Agent Core Memory" style="shape=cylinder3;whiteSpace=wrap;html=1;boundedLbl=1;backgroundOutline=1;size=15;" parent="1" vertex="1">
          <mxGeometry x="930" y="360" width="95" height="80" as="geometry" />
        </mxCell>
        <mxCell id="f4k4mPXVEmRB13-rDJSD-4" value="" style="edgeStyle=orthogonalEdgeStyle;rounded=0;orthogonalLoop=1;jettySize=auto;html=1;entryX=0;entryY=0.5;entryDx=0;entryDy=0;entryPerimeter=0;exitX=1;exitY=0.5;exitDx=0;exitDy=0;" parent="1" source="Fe8OBIoB_mkEUTJh_w8t-6" target="f4k4mPXVEmRB13-rDJSD-3" edge="1">
          <mxGeometry relative="1" as="geometry">
            <mxPoint x="780" y="490" as="sourcePoint" />
            <mxPoint x="780" y="570" as="targetPoint" />
          </mxGeometry>
        </mxCell>
        <mxCell id="f4k4mPXVEmRB13-rDJSD-5" value="Retrieve historical context" style="edgeLabel;html=1;align=center;verticalAlign=middle;resizable=0;points=[];" parent="f4k4mPXVEmRB13-rDJSD-4" vertex="1" connectable="0">
          <mxGeometry x="-0.0083" y="-2" relative="1" as="geometry">
            <mxPoint as="offset" />
          </mxGeometry>
        </mxCell>
        <mxCell id="f4k4mPXVEmRB13-rDJSD-6" value="AWS Bedrock Knowledge Base" style="shape=cylinder3;whiteSpace=wrap;html=1;boundedLbl=1;backgroundOutline=1;size=15;" parent="1" vertex="1">
          <mxGeometry x="1040" y="480" width="95" height="80" as="geometry" />
        </mxCell>
        <mxCell id="c3LUB54JRg7kLTXYF0ZX-3" value="" style="edgeStyle=orthogonalEdgeStyle;rounded=0;orthogonalLoop=1;jettySize=auto;html=1;" parent="1" source="8Fh6wXzdwlMob8bPz3gx-1" target="c3LUB54JRg7kLTXYF0ZX-2" edge="1">
          <mxGeometry relative="1" as="geometry" />
        </mxCell>
        <mxCell id="c3LUB54JRg7kLTXYF0ZX-5" value="Hypothesis, RCA tasks" style="edgeLabel;html=1;align=center;verticalAlign=middle;resizable=0;points=[];" parent="c3LUB54JRg7kLTXYF0ZX-3" vertex="1" connectable="0">
          <mxGeometry x="-0.1333" y="-2" relative="1" as="geometry">
            <mxPoint as="offset" />
          </mxGeometry>
        </mxCell>
        <mxCell id="8Fh6wXzdwlMob8bPz3gx-1" value="2.2 Invoke LLM for reasoning and making plans" style="rounded=1;whiteSpace=wrap;html=1;" parent="1" vertex="1">
          <mxGeometry x="595" y="640" width="150" height="70" as="geometry" />
        </mxCell>
        <mxCell id="x-9kWURBxh-sCPPAGdVp-1" value="AWS Bedrock Models" style="shape=cylinder3;whiteSpace=wrap;html=1;boundedLbl=1;backgroundOutline=1;size=15;" parent="1" vertex="1">
          <mxGeometry x="970" y="635" width="95" height="80" as="geometry" />
        </mxCell>
        <mxCell id="x-9kWURBxh-sCPPAGdVp-2" style="edgeStyle=orthogonalEdgeStyle;rounded=0;orthogonalLoop=1;jettySize=auto;html=1;entryX=0;entryY=0.5;entryDx=0;entryDy=0;entryPerimeter=0;" parent="1" source="8Fh6wXzdwlMob8bPz3gx-1" target="x-9kWURBxh-sCPPAGdVp-1" edge="1">
          <mxGeometry relative="1" as="geometry" />
        </mxCell>
        <mxCell id="x-9kWURBxh-sCPPAGdVp-3" value="Invoke models" style="text;html=1;align=center;verticalAlign=middle;resizable=0;points=[];autosize=1;strokeColor=none;fillColor=none;" parent="1" vertex="1">
          <mxGeometry x="790" y="648" width="100" height="30" as="geometry" />
        </mxCell>
        <mxCell id="b0tNb7fs2RYmETNrj92h-13" style="edgeStyle=orthogonalEdgeStyle;rounded=0;orthogonalLoop=1;jettySize=auto;html=1;" parent="1" source="c3LUB54JRg7kLTXYF0ZX-2" edge="1">
          <mxGeometry relative="1" as="geometry">
            <mxPoint x="1010" y="870" as="targetPoint" />
            <Array as="points">
              <mxPoint x="950" y="870" />
              <mxPoint x="950" y="870" />
            </Array>
          </mxGeometry>
        </mxCell>
        <mxCell id="qnMHV8HwdRIoNwzne0R7-1" value="execute tools based on task" style="edgeLabel;html=1;align=center;verticalAlign=middle;resizable=0;points=[];" parent="b0tNb7fs2RYmETNrj92h-13" vertex="1" connectable="0">
          <mxGeometry x="-0.2154" y="1" relative="1" as="geometry">
            <mxPoint x="14" y="-14" as="offset" />
          </mxGeometry>
        </mxCell>
        <mxCell id="Shsd0KV32xNzC_tSkcMQ-4" value="" style="edgeStyle=orthogonalEdgeStyle;rounded=0;orthogonalLoop=1;jettySize=auto;html=1;" parent="1" source="c3LUB54JRg7kLTXYF0ZX-2" target="Shsd0KV32xNzC_tSkcMQ-3" edge="1">
          <mxGeometry relative="1" as="geometry" />
        </mxCell>
        <mxCell id="YQTShFlFj6-x3_fsJMgc-1" value="Tool response result" style="edgeLabel;html=1;align=center;verticalAlign=middle;resizable=0;points=[];" parent="Shsd0KV32xNzC_tSkcMQ-4" vertex="1" connectable="0">
          <mxGeometry x="-0.2733" y="-3" relative="1" as="geometry">
            <mxPoint as="offset" />
          </mxGeometry>
        </mxCell>
        <mxCell id="c3LUB54JRg7kLTXYF0ZX-2" value="2.3 Execute diagnostic tools" style="rounded=1;whiteSpace=wrap;html=1;" parent="1" vertex="1">
          <mxGeometry x="595" y="840" width="150" height="70" as="geometry" />
        </mxCell>
        <mxCell id="b0tNb7fs2RYmETNrj92h-14" style="edgeStyle=orthogonalEdgeStyle;rounded=0;orthogonalLoop=1;jettySize=auto;html=1;entryX=1;entryY=0.25;entryDx=0;entryDy=0;exitX=0;exitY=0.5;exitDx=0;exitDy=0;" parent="1" source="b0tNb7fs2RYmETNrj92h-12" edge="1">
          <mxGeometry relative="1" as="geometry">
            <mxPoint x="900" y="902.5" as="sourcePoint" />
            <mxPoint x="745" y="890" as="targetPoint" />
            <Array as="points" />
          </mxGeometry>
        </mxCell>
        <mxCell id="b0tNb7fs2RYmETNrj92h-12" value="Agent Tools" style="swimlane;whiteSpace=wrap;html=1;" parent="1" vertex="1">
          <mxGeometry x="1010" y="740" width="350" height="300" as="geometry" />
        </mxCell>
        <mxCell id="U8pMISaGgIY4Rcykp7Uw-1" value="analyze log" style="rounded=1;whiteSpace=wrap;html=1;" parent="b0tNb7fs2RYmETNrj92h-12" vertex="1">
          <mxGeometry x="47.5" y="90" width="255" height="30" as="geometry" />
        </mxCell>
        <mxCell id="W5S3mK40coi6JgEi7xEu-1" value="query and analyze alerts" style="rounded=1;whiteSpace=wrap;html=1;" parent="b0tNb7fs2RYmETNrj92h-12" vertex="1">
          <mxGeometry x="47.5" y="40" width="255" height="30" as="geometry" />
        </mxCell>
        <mxCell id="W5S3mK40coi6JgEi7xEu-5" value="analyze metrics trend" style="rounded=1;whiteSpace=wrap;html=1;" parent="b0tNb7fs2RYmETNrj92h-12" vertex="1">
          <mxGeometry x="47.5" y="140" width="255" height="30" as="geometry" />
        </mxCell>
        <mxCell id="W5S3mK40coi6JgEi7xEu-6" value="analyze traces" style="rounded=1;whiteSpace=wrap;html=1;" parent="b0tNb7fs2RYmETNrj92h-12" vertex="1">
          <mxGeometry x="47.5" y="190" width="255" height="30" as="geometry" />
        </mxCell>
        <mxCell id="W5S3mK40coi6JgEi7xEu-7" value="interact with k8s cluster" style="rounded=1;whiteSpace=wrap;html=1;" parent="b0tNb7fs2RYmETNrj92h-12" vertex="1">
          <mxGeometry x="47.5" y="240" width="255" height="30" as="geometry" />
        </mxCell>
        <mxCell id="7LZBwzapWqGlmJO5NMuN-1" style="edgeStyle=orthogonalEdgeStyle;rounded=0;orthogonalLoop=1;jettySize=auto;html=1;entryX=0.5;entryY=0;entryDx=0;entryDy=0;" parent="1" source="Shsd0KV32xNzC_tSkcMQ-3" target="7LZBwzapWqGlmJO5NMuN-3" edge="1">
          <mxGeometry relative="1" as="geometry">
            <mxPoint x="670" y="1180" as="targetPoint" />
          </mxGeometry>
        </mxCell>
        <mxCell id="7LZBwzapWqGlmJO5NMuN-2" value="Root cause sumary, evidence" style="edgeLabel;html=1;align=center;verticalAlign=middle;resizable=0;points=[];" parent="7LZBwzapWqGlmJO5NMuN-1" vertex="1" connectable="0">
          <mxGeometry x="-0.217" y="-1" relative="1" as="geometry">
            <mxPoint as="offset" />
          </mxGeometry>
        </mxCell>
        <mxCell id="Shsd0KV32xNzC_tSkcMQ-3" value="2.4&amp;nbsp;&lt;span class=&quot;headword hdb tw-bw dhw dpos-h_hw&quot;&gt;&lt;span class=&quot;hw dhw&quot;&gt;Invoke LLM to correlate and&amp;nbsp;&lt;/span&gt;&lt;/span&gt;generate findings&amp;nbsp;" style="rounded=1;whiteSpace=wrap;html=1;" parent="1" vertex="1">
          <mxGeometry x="595" y="1000" width="150" height="70" as="geometry" />
        </mxCell>
        <mxCell id="geK7K66jdrTtxPlHXsQU-1" value="response" style="text;html=1;align=center;verticalAlign=middle;resizable=0;points=[];autosize=1;strokeColor=none;fillColor=none;" parent="1" vertex="1">
          <mxGeometry x="850" y="880" width="70" height="30" as="geometry" />
        </mxCell>
        <mxCell id="geK7K66jdrTtxPlHXsQU-2" style="edgeStyle=orthogonalEdgeStyle;rounded=0;orthogonalLoop=1;jettySize=auto;html=1;entryX=0;entryY=0;entryDx=0;entryDy=52.5;entryPerimeter=0;exitX=1;exitY=0.5;exitDx=0;exitDy=0;" parent="1" edge="1">
          <mxGeometry relative="1" as="geometry">
            <mxPoint x="745" y="1048.74" as="sourcePoint" />
            <mxPoint x="970" y="701.24" as="targetPoint" />
            <Array as="points">
              <mxPoint x="745" y="1030" />
              <mxPoint x="790" y="1030" />
              <mxPoint x="790" y="701" />
            </Array>
          </mxGeometry>
        </mxCell>
        <mxCell id="-XyhOtzPX8UrPvtPMze9-2" value="Invoke models" style="edgeLabel;html=1;align=center;verticalAlign=middle;resizable=0;points=[];" parent="geK7K66jdrTtxPlHXsQU-2" vertex="1" connectable="0">
          <mxGeometry x="0.0462" relative="1" as="geometry">
            <mxPoint as="offset" />
          </mxGeometry>
        </mxCell>
        <mxCell id="7LZBwzapWqGlmJO5NMuN-4" style="edgeStyle=orthogonalEdgeStyle;rounded=0;orthogonalLoop=1;jettySize=auto;html=1;entryX=0.5;entryY=1;entryDx=0;entryDy=0;" parent="1" source="7LZBwzapWqGlmJO5NMuN-3" target="_I0EDEAmdE2JyKph3qPA-6" edge="1">
          <mxGeometry relative="1" as="geometry" />
        </mxCell>
        <mxCell id="-XyhOtzPX8UrPvtPMze9-1" value="Response to incident and questions" style="edgeLabel;html=1;align=center;verticalAlign=middle;resizable=0;points=[];" parent="7LZBwzapWqGlmJO5NMuN-4" vertex="1" connectable="0">
          <mxGeometry x="0.4115" y="1" relative="1" as="geometry">
            <mxPoint as="offset" />
          </mxGeometry>
        </mxCell>
        <mxCell id="7LZBwzapWqGlmJO5NMuN-3" value="2.5 Send root cause report" style="rounded=1;whiteSpace=wrap;html=1;" parent="1" vertex="1">
          <mxGeometry x="593.75" y="1180" width="152.5" height="70" as="geometry" />
        </mxCell>
      </root>
    </mxGraphModel>
  </diagram>
</mxfile>
